<?xml version="1.0" encoding="UTF-8" standalone="no"?>
<!-- Created with Notepad -->

<!-- (PD) December 18, 2005 - _Zach Harden_  -->

<svg
   xmlns:dc="http://purl.org/dc/elements/1.1/"
   xmlns:cc="http://creativecommons.org/ns#"
   xmlns:rdf="http://www.w3.org/1999/02/22-rdf-syntax-ns#"
   xmlns:svg="http://www.w3.org/2000/svg"
   xmlns="http://www.w3.org/2000/svg"
   xmlns:sodipodi="http://sodipodi.sourceforge.net/DTD/sodipodi-0.dtd"
   xmlns:inkscape="http://www.inkscape.org/namespaces/inkscape"
   version="1.0"
   width="1000"
   height="600"
   id="Flag of Haiti"
   inkscape:version="0.48.2 r9819"
   sodipodi:docname="Bandera_Movimiento_14_de_Junio_(1J4)2.svg">
  <metadata
     id="metadata9">
    <rdf:RDF>
      <cc:Work
         rdf:about="">
        <dc:format>image/svg+xml</dc:format>
        <dc:type
           rdf:resource="http://purl.org/dc/dcmitype/StillImage" />
        <dc:title></dc:title>
      </cc:Work>
    </rdf:RDF>
  </metadata>
  <defs
     id="defs7" />
  <sodipodi:namedview
     pagecolor="#ffffff"
     bordercolor="#666666"
     borderopacity="1"
     objecttolerance="10"
     gridtolerance="10"
     guidetolerance="10"
     inkscape:pageopacity="0"
     inkscape:pageshadow="2"
     inkscape:window-width="1280"
     inkscape:window-height="751"
     id="namedview5"
     showgrid="false"
     inkscape:zoom="0.60263736"
     inkscape:cx="400.86824"
     inkscape:cy="181.3309"
     inkscape:window-x="-4"
     inkscape:window-y="-4"
     inkscape:window-maximized="1"
     inkscape:current-layer="Flag of Haiti" />
  <g
     id="g3069"
     transform="translate(-908.27795,-38.380364)">
    <path
       inkscape:connector-curvature="0"
       id="path2998"
       d="m 1708.623,127.93518 -118.9063,307.28125 133.0313,0 -3.5,-10.6875 c -23.877,-4.31049 -40.0625,-8.82786 -40.0625,-18.46875 0,-7.56429 13.827,-12.40521 29.6562,-17.0625 l -37.5,-120.78125 44.9688,0 121.25,124.1875 27.25,12.15625 -110.0625,-276.625 -46.125,0 z"
       style="fill:#668fd0;fill-opacity:1;stroke:none" />
    <path
       inkscape:connector-curvature="0"
       id="path3000-1"
       d="m 1405.7792,124.19132 c -0.8922,0 -1.7679,0.0133 -2.6562,0.0312 -77.2819,1.55388 -139.4688,70.35613 -139.4688,155.0625 0,85.68002 63.6106,155.15625 142.125,155.15625 1.7135,0 3.4575,-0.0281 5.1563,-0.0937 l 141.0625,0 0,-83.46875 c -7.881,-63.44564 -81.2188,-56.07312 -81.2188,3.90625 l -88.5625,-0.71875 0.7188,-24.28125 5.6875,0 -0.6875,-63.59375 59.2812,0 40.7188,-57.84375 64.0625,0 0,-84.125 -142.5313,0 c -1.2193,-0.0341 -2.4607,-0.0312 -3.6875,-0.0312 z"
       style="fill:#76b608;fill-opacity:1" />
    <path
       inkscape:connector-curvature="0"
       id="path3000-1-7"
       d="m 1102.3763,124.86428 c -1.2267,0 -2.4681,-0.003 -3.6875,0.0312 l -142.5312,0 0,102.03125 13.1875,12.15625 21.0625,0.84375 19.2812,21.5 153.5,0.84375 -99.125,86.875 -107.9062,0 0,85.875 141.0625,0 c 1.6988,0.0656 3.4428,0.0937 5.1562,0.0937 78.5144,0 142.1251,-69.47623 142.1251,-155.15625 0,-84.70637 -62.1869,-153.50862 -139.4688,-155.0625 -0.8883,-0.0179 -1.764,-0.0312 -2.6563,-0.0312 z"
       style="fill:#1a246c;fill-opacity:1" />
    <g
       style="font-size:128.1068573px;font-style:normal;font-weight:normal;line-height:125%;letter-spacing:0px;word-spacing:0px;fill:#000000;fill-opacity:1;stroke:none;font-family:Sans"
       id="text3053">
      <path
         d="m 1009.356,522.16906 -32.83994,0 -5.7548,13.38617 c -1.41786,3.29442 -2.12679,5.75481 -2.12677,7.38115 -2e-5,1.29275 0.61508,2.42912 1.84529,3.4091 1.23017,0.97998 3.88864,1.61593 7.9754,1.90784 l 0,2.31443 -26.70978,0 0,-2.31443 c 3.54462,-0.62552 5.8382,-1.4387 6.88074,-2.43954 2.12677,-2.00166 4.4829,-6.06755 7.0684,-12.19767 l 29.83739,-69.80823 2.18932,0 29.52465,70.55886 c 2.3769,5.6714 4.5349,9.35155 6.4741,11.04045 1.9391,1.68892 4.6392,2.63762 8.1005,2.84613 l 0,2.31443 -33.4654,0 0,-2.31443 c 3.3778,-0.1668 5.6609,-0.72977 6.8495,-1.68891 1.1884,-0.95913 1.7827,-2.12677 1.7827,-3.50292 0,-1.83486 -0.8341,-4.7331 -2.5021,-8.69475 z m -1.7515,-4.62886 -14.387,-34.27859 -14.76232,34.27859 z"
         style="font-variant:normal;font-stretch:normal;letter-spacing:47.30508804px;font-family:Serif;-inkscape-font-specification:Serif"
         id="path3077"
         inkscape:connector-curvature="0" />
      <path
         d="m 1092.8162,550.56775 0,-2.31443 3.1902,0 c 3.5863,0 6.1301,-1.14679 7.6313,-3.44037 0.9174,-1.37614 1.3762,-4.46205 1.3762,-9.25772 l 0,-54.79571 c 0,-5.29601 -0.5839,-8.61127 -1.7515,-9.9458 -1.6264,-1.83478 -4.045,-2.75221 -7.256,-2.75229 l -3.1902,0 0,-2.31443 34.5288,0 c 12.6772,8e-5 22.3206,1.43878 28.9304,4.3161 6.6096,2.87748 11.9265,7.67314 15.9508,14.387 4.0241,6.71399 6.0362,14.47045 6.0363,23.26941 -10e-5,11.80154 -3.5864,21.66392 -10.759,29.58718 -8.0484,8.84071 -20.3087,13.26106 -36.7807,13.26106 z m 24.2077,-6.13011 c 5.296,1.16764 9.7372,1.75146 13.3236,1.75146 9.6747,0 17.7022,-3.39866 24.0826,-10.19601 6.3802,-6.79731 9.5704,-16.01332 9.5705,-27.64806 -10e-5,-11.71805 -3.1903,-20.95492 -9.5705,-27.71061 -6.3804,-6.75556 -14.5747,-10.13338 -24.583,-10.13346 -3.7532,8e-5 -8.0276,0.60475 -12.8232,1.81402 z"
         style="font-variant:normal;font-stretch:normal;letter-spacing:47.30508804px;font-family:Serif;-inkscape-font-specification:Serif"
         id="path3079"
         inkscape:connector-curvature="0" />
      <path
         d="m 1291.6227,468.06143 0,-2.31443 30.025,0 0,2.31443 -3.1902,0 c -3.3362,8e-5 -5.9008,1.39708 -7.6939,4.19099 -0.8758,1.29283 -1.3136,4.29533 -1.3136,9.00752 l 0,34.40369 c 0,8.50713 -0.8445,15.10637 -2.5333,19.79777 -1.689,4.69142 -5.0043,8.71561 -9.9458,12.07257 -4.9417,3.35696 -11.6661,5.03545 -20.1731,5.03545 -9.2578,0 -16.2845,-1.60551 -21.0801,-4.81652 -4.7957,-3.211 -8.1943,-7.5271 -10.196,-12.9483 -1.3345,-3.71141 -2.0017,-10.67554 -2.0017,-20.89243 l 0,-33.15265 c 0,-5.21261 -0.7193,-8.63212 -2.158,-10.25856 -1.4387,-1.62627 -3.7636,-2.43945 -6.9746,-2.43953 l -3.1901,0 0,-2.31443 36.6555,0 0,2.31443 -3.2527,0 c -3.5029,8e-5 -6.005,1.10517 -7.5062,3.31526 -1.0426,1.50133 -1.5639,4.62894 -1.5638,9.38283 l 0,36.96834 c -10e-5,3.29444 0.3023,7.06842 0.907,11.32194 0.6046,4.25357 1.6993,7.56883 3.284,9.9458 1.5846,2.37699 3.8677,4.33695 6.8494,5.8799 2.9816,1.54296 6.6409,2.31443 10.9779,2.31443 5.5463,0 10.5087,-1.20934 14.8874,-3.62802 4.3786,-2.41868 7.3707,-5.51501 8.9763,-9.289 1.6054,-3.77396 2.4082,-10.16471 2.4082,-19.17225 l 0,-34.34114 c 0,-5.29601 -0.5839,-8.61127 -1.7514,-9.9458 -1.6265,-1.83478 -4.0451,-2.75221 -7.2561,-2.75229 z"
         style="font-variant:normal;font-stretch:normal;letter-spacing:47.30508804px;font-family:Serif;-inkscape-font-specification:Serif"
         id="path3081"
         inkscape:connector-curvature="0" />
      <path
         d="m 1429.0029,522.16906 -32.8399,0 -5.7548,13.38617 c -1.4179,3.29442 -2.1268,5.75481 -2.1268,7.38115 0,1.29275 0.6151,2.42912 1.8453,3.4091 1.2302,0.97998 3.8887,1.61593 7.9754,1.90784 l 0,2.31443 -26.7098,0 0,-2.31443 c 3.5447,-0.62552 5.8382,-1.4387 6.8808,-2.43954 2.1267,-2.00166 4.4829,-6.06755 7.0684,-12.19767 l 29.8374,-69.80823 2.1893,0 29.5246,70.55886 c 2.3769,5.6714 4.535,9.35155 6.4742,11.04045 1.939,1.68892 4.6392,2.63762 8.1005,2.84613 l 0,2.31443 -33.4654,0 0,-2.31443 c 3.3777,-0.1668 5.6609,-0.72977 6.8494,-1.68891 1.1885,-0.95913 1.7827,-2.12677 1.7828,-3.50292 -10e-5,-1.83486 -0.8341,-4.7331 -2.5021,-8.69475 z m -1.7515,-4.62886 -14.387,-34.27859 -14.7623,34.27859 z"
         style="font-variant:normal;font-stretch:normal;letter-spacing:47.30508804px;font-family:Serif;-inkscape-font-specification:Serif"
         id="path3083"
         inkscape:connector-curvature="0" />
      <path
         d="m 1508.5849,465.747 23.0192,0 51.8558,63.61556 0,-48.9158 c -10e-5,-5.21261 -0.5839,-8.46532 -1.7515,-9.75814 -1.543,-1.75138 -3.9826,-2.62711 -7.3186,-2.62719 l -2.94,0 0,-2.31443 29.5247,0 0,2.31443 -3.0025,0 c -3.5865,8e-5 -6.1302,1.08432 -7.6314,3.25271 -0.9175,1.33453 -1.3762,4.37873 -1.3762,9.13262 l 0,71.49714 -2.2518,0 -55.9217,-68.30698 0,52.23107 c 0,5.21269 0.563,8.4654 1.6889,9.75814 1.5847,1.75146 4.0242,2.62719 7.3186,2.62719 l 3.0025,0 0,2.31443 -29.5246,0 0,-2.31443 2.94,0 c 3.628,0 6.1926,-1.08424 7.6939,-3.25271 0.9174,-1.33444 1.3761,-4.37865 1.3761,-9.13262 l 0,-58.9867 c -2.4604,-2.87733 -4.3265,-4.77474 -5.5984,-5.69225 -1.2719,-0.91735 -3.138,-1.77223 -5.5984,-2.56464 -1.2094,-0.37523 -3.0442,-0.56289 -5.5046,-0.56297 z"
         style="font-variant:normal;font-stretch:normal;letter-spacing:47.30508804px;font-family:Serif;-inkscape-font-specification:Serif"
         id="path3085"
         inkscape:connector-curvature="0" />
      <path
         d="m 1708.7675,522.16906 -32.8399,0 -5.7548,13.38617 c -1.4178,3.29442 -2.1268,5.75481 -2.1267,7.38115 -10e-5,1.29275 0.615,2.42912 1.8452,3.4091 1.2302,0.97998 3.8887,1.61593 7.9754,1.90784 l 0,2.31443 -26.7097,0 0,-2.31443 c 3.5446,-0.62552 5.8382,-1.4387 6.8807,-2.43954 2.1268,-2.00166 4.4829,-6.06755 7.0684,-12.19767 l 29.8374,-69.80823 2.1893,0 29.5246,70.55886 c 2.3769,5.6714 4.535,9.35155 6.4742,11.04045 1.939,1.68892 4.6392,2.63762 8.1005,2.84613 l 0,2.31443 -33.4654,0 0,-2.31443 c 3.3777,-0.1668 5.6609,-0.72977 6.8494,-1.68891 1.1885,-0.95913 1.7827,-2.12677 1.7828,-3.50292 -10e-5,-1.83486 -0.8341,-4.7331 -2.5021,-8.69475 z m -1.7514,-4.62886 -14.387,-34.27859 -14.7624,34.27859 z"
         style="font-variant:normal;font-stretch:normal;letter-spacing:47.30508804px;font-family:Serif;-inkscape-font-specification:Serif"
         id="path3087"
         inkscape:connector-curvature="0" />
      <path
         d="m 1848.7749,463.80788 0,29.33697 -2.3144,0 c -0.7507,-5.62963 -2.0955,-10.11253 -4.0346,-13.44872 -1.9392,-3.33604 -4.7019,-5.98408 -8.2882,-7.94412 -3.5863,-1.95989 -7.2978,-2.93987 -11.1343,-2.93996 -4.3369,9e-5 -7.9233,1.32411 -10.7589,3.97207 -2.8357,2.64811 -4.2536,5.66104 -4.2536,9.03879 0,2.58555 0.8966,4.94168 2.6898,7.06839 2.5854,3.12767 8.7364,7.29781 18.4529,12.51044 7.9232,4.25359 13.3339,7.51673 16.2323,9.78941 2.8981,2.27277 5.1292,4.95209 6.693,8.03796 1.5638,3.08593 2.3457,6.31779 2.3457,9.69559 0,6.42203 -2.4917,11.9579 -7.4749,16.6076 -4.9834,4.64971 -11.395,6.97456 -19.2348,6.97457 -2.4605,-1e-5 -4.7749,-0.18766 -6.9433,-0.56297 -1.2928,-0.20851 -3.9721,-0.96956 -8.038,-2.28316 -4.0659,-1.31359 -6.641,-1.97039 -7.7252,-1.97039 -1.0425,0 -1.8661,0.31276 -2.4708,0.93828 -0.6047,0.62552 -1.053,1.91827 -1.3449,3.87824 l -2.3144,0 0,-29.08677 2.3144,0 c 1.0843,6.08844 2.5438,10.64432 4.3787,13.66766 1.8348,3.02336 4.6393,5.53587 8.4133,7.53753 3.7739,2.00168 7.9128,3.00251 12.4166,3.00251 5.2126,0 9.3306,-1.37615 12.354,-4.12845 3.0233,-2.75228 4.535,-6.00499 4.5351,-9.75814 -1e-4,-2.08505 -0.5735,-4.19097 -1.7202,-6.31777 -1.1469,-2.12674 -2.9296,-4.10756 -5.3482,-5.94245 -1.6264,-1.25102 -6.0676,-3.90948 -13.3237,-7.97541 -7.256,-4.06585 -12.4166,-7.30813 -15.4816,-9.72686 -3.0651,-2.41863 -5.3899,-5.08752 -6.9746,-8.00668 -1.5847,-2.91904 -2.377,-6.13005 -2.377,-9.63303 0,-6.08834 2.3353,-11.3323 7.0059,-15.73188 4.6705,-4.39941 10.613,-6.59916 17.8273,-6.59925 4.5038,9e-5 9.2786,1.10517 14.3245,3.31527 2.3352,1.04261 3.9824,1.56388 4.9416,1.5638 1.0842,8e-5 1.9704,-0.3231 2.6585,-0.96956 0.688,-0.64629 1.2405,-1.94946 1.6576,-3.90951 z"
         style="font-variant:normal;font-stretch:normal;letter-spacing:47.30508804px;font-family:Serif;-inkscape-font-specification:Serif"
         id="path3089"
         inkscape:connector-curvature="0" />
    </g>
  </g>
</svg>
